<svg xmlns="http://www.w3.org/2000/svg" viewBox="0 0 659.99 225"><defs><style>.cls-1{fill:#3f37c9;}</style></defs><g id="Layer_2" data-name="Layer 2"><g id="Layer_1-2" data-name="Layer 1"><path d="M319.88,90.67h-1.11A20.42,20.42,0,0,1,311,98a25.56,25.56,0,0,1-13,3,29.35,29.35,0,0,1-12.35-2.69,33,33,0,0,1-10.35-7.46,35.24,35.24,0,0,1-7.1-11.38A39,39,0,0,1,265.64,65a39,39,0,0,1,2.63-14.49,35.28,35.28,0,0,1,7.1-11.39,33,33,0,0,1,10.35-7.45A29.35,29.35,0,0,1,298.07,29a25.46,25.46,0,0,1,13,3,20.42,20.42,0,0,1,7.73,7.31h1.11l-1.11-9.66V0h18.08V98.81h-17ZM301.8,84.32A18.13,18.13,0,0,0,308.63,83a17.18,17.18,0,0,0,5.73-3.8,18.87,18.87,0,0,0,4-6.07A20.76,20.76,0,0,0,319.88,65a20.73,20.73,0,0,0-1.52-8.14,18.92,18.92,0,0,0-4-6.08A17.31,17.31,0,0,0,308.63,47a18.13,18.13,0,0,0-6.83-1.31A17.26,17.26,0,0,0,295,47.06a18.15,18.15,0,0,0-5.73,3.86,18.82,18.82,0,0,0-4,6.07,21.84,21.84,0,0,0,0,16,18.6,18.6,0,0,0,4,6.07A18,18,0,0,0,295,82.94,17.26,17.26,0,0,0,301.8,84.32Z"/><path d="M415.65,82.52A37.89,37.89,0,0,1,403,95.91q-7.93,5.1-19.39,5.11a37.32,37.32,0,0,1-14.28-2.69,34.2,34.2,0,0,1-18.91-18.91A37.71,37.71,0,0,1,347.75,65a37,37,0,0,1,2.63-13.87A35,35,0,0,1,368.8,31.88,34,34,0,0,1,382.94,29a36.89,36.89,0,0,1,14.49,2.69,29.57,29.57,0,0,1,10.63,7.45,32.33,32.33,0,0,1,6.49,11.25,43.52,43.52,0,0,1,2.2,14.08V66.1a9.54,9.54,0,0,0-.14,1.52,8,8,0,0,0-.13,1.52H365.56a18.9,18.9,0,0,0,2.27,7.11,17.3,17.3,0,0,0,4.28,5,16.49,16.49,0,0,0,5.59,2.9,21.7,21.7,0,0,0,6.21.9,17.56,17.56,0,0,0,10.28-2.83,20.82,20.82,0,0,0,6.42-7.11ZM399.23,56.3a12,12,0,0,0-1.18-4,14.19,14.19,0,0,0-3-4.14,16.12,16.12,0,0,0-5-3.17,18.35,18.35,0,0,0-7.11-1.24,16.54,16.54,0,0,0-10.21,3.31,17.55,17.55,0,0,0-6.21,9.24Z"/><path d="M428.34,98.81V0h18.08V98.81Z"/><path d="M470,46.64H458.15V31.19H470V10.49H488.1v20.7h16.56V46.64H488.1v27a19.66,19.66,0,0,0,.48,4.48,7.26,7.26,0,0,0,1.86,3.49A6.83,6.83,0,0,0,496,83.9a10,10,0,0,0,6.35-1.79L507.42,98a30.29,30.29,0,0,1-6.83,2.28,40.27,40.27,0,0,1-8.08.76,24.81,24.81,0,0,1-9.17-1.62A19.47,19.47,0,0,1,476.5,95q-6.48-6.34-6.48-18Z"/><path d="M558.2,91.63h-1.1a30.51,30.51,0,0,1-7.66,6.63Q545,101,537.91,101a28,28,0,0,1-9.86-1.73A25.68,25.68,0,0,1,520,94.53a21.28,21.28,0,0,1-5.38-7.31,22.5,22.5,0,0,1-1.93-9.39,21.15,21.15,0,0,1,2.07-9.45,21.47,21.47,0,0,1,5.8-7.25,26.17,26.17,0,0,1,8.76-4.62,36.58,36.58,0,0,1,11-1.59,47.46,47.46,0,0,1,10.9,1,52.4,52.4,0,0,1,7,2.14V56a11,11,0,0,0-4.28-8.9,16.14,16.14,0,0,0-10.62-3.52q-9.39,0-15.87,7.86l-13.12-9Q525.08,29,543.71,29q15.74,0,24,7.38T576,58.24V98.81H558.2Zm0-20.28a36.91,36.91,0,0,0-6.56-2.42,28.59,28.59,0,0,0-7.38-.9q-6.48,0-10,2.83a8.62,8.62,0,0,0-3.52,7,7.82,7.82,0,0,0,3.38,6.63,12.84,12.84,0,0,0,7.8,2.48,16.57,16.57,0,0,0,6.62-1.31,16.26,16.26,0,0,0,5.17-3.45,15.35,15.35,0,0,0,4.49-10.83Z"/><path d="M301.19,225a38.48,38.48,0,0,1-11.8-1.66,32.53,32.53,0,0,1-9-4.34,28.75,28.75,0,0,1-6.42-6.21,30.32,30.32,0,0,1-4-7.11l16.15-6.9a17.42,17.42,0,0,0,6.28,7.8,15.75,15.75,0,0,0,8.76,2.55,15,15,0,0,0,7.87-1.79q2.9-1.8,2.89-4.28a5.29,5.29,0,0,0-2.41-4.49c-1.61-1.15-4.4-2.18-8.35-3.1l-9.52-2.07a33.57,33.57,0,0,1-6.56-2.21,25.77,25.77,0,0,1-6.14-3.86,19.54,19.54,0,0,1-4.55-5.66,15.93,15.93,0,0,1-1.8-7.73,18,18,0,0,1,2.14-8.83,20,20,0,0,1,5.87-6.56,28.18,28.18,0,0,1,8.76-4.14A39.26,39.26,0,0,1,300.22,153a38.05,38.05,0,0,1,17.25,3.8,23.35,23.35,0,0,1,11.18,12.07l-15.59,6.35a12,12,0,0,0-5.66-5.79,17,17,0,0,0-7.45-1.8,13.81,13.81,0,0,0-6.76,1.59c-1.94,1.06-2.9,2.41-2.9,4.07A4.17,4.17,0,0,0,292.7,177a28.29,28.29,0,0,0,6.56,2.48l10.35,2.48Q320,184.43,325,189.88a18.37,18.37,0,0,1,5,12.9A18.08,18.08,0,0,1,328,211.2a22.53,22.53,0,0,1-5.86,7.11,28.86,28.86,0,0,1-9.11,4.9A36.9,36.9,0,0,1,301.19,225Z"/><path d="M347.83,170.63H336V155.17h11.86v-20.7h18.08v20.7h16.56v15.46H365.91v27a19.16,19.16,0,0,0,.49,4.48,7.23,7.23,0,0,0,1.86,3.48,6.83,6.83,0,0,0,5.52,2.28,11.66,11.66,0,0,0,3.72-.48,11.78,11.78,0,0,0,2.63-1.32l5.1,15.87a29.64,29.64,0,0,1-6.83,2.28,39.52,39.52,0,0,1-8.07.76,24.62,24.62,0,0,1-9.18-1.62,19.52,19.52,0,0,1-6.83-4.44q-6.49-6.33-6.49-18Z"/><path d="M442.5,214h-1.1a22.82,22.82,0,0,1-8.56,8.07,25,25,0,0,1-12.28,3q-12.84,0-19.12-7.87t-6.27-21v-41h18.07V194q0,7.32,3.25,10.83t9.45,3.52a13.13,13.13,0,0,0,6.55-1.59,15.14,15.14,0,0,0,4.83-4.27,19.3,19.3,0,0,0,3-6.35,28.54,28.54,0,0,0,1-7.8V155.17h18.07v67.62h-17Z"/><path d="M524.61,214.65h-1.1a20.57,20.57,0,0,1-7.73,7.31,25.48,25.48,0,0,1-13,3,29.28,29.28,0,0,1-12.35-2.69,32.94,32.94,0,0,1-10.36-7.45,35.28,35.28,0,0,1-7.1-11.39,41.38,41.38,0,0,1,0-29,35.24,35.24,0,0,1,7.1-11.38,32.79,32.79,0,0,1,10.36-7.45,29.14,29.14,0,0,1,12.35-2.7,25.58,25.58,0,0,1,13,3,20.65,20.65,0,0,1,7.73,7.31h1.1l-1.1-9.66V124h18.07v98.81h-17Zm-18.08-6.35a17.93,17.93,0,0,0,6.83-1.31,17.16,17.16,0,0,0,5.73-3.79,18.82,18.82,0,0,0,4-6.07,22.58,22.58,0,0,0,0-16.29,18.71,18.71,0,0,0-4-6.07,17.18,17.18,0,0,0-5.73-3.8,18.13,18.13,0,0,0-6.83-1.31A17.26,17.26,0,0,0,499.7,171a18,18,0,0,0-5.73,3.87,18.87,18.87,0,0,0-4,6.07,21.84,21.84,0,0,0,0,16,19,19,0,0,0,4,6.07,18.15,18.15,0,0,0,5.73,3.86A17.26,17.26,0,0,0,506.53,208.3Z"/><path d="M567.11,146.06a11.61,11.61,0,0,1-8.21-3.38,11.58,11.58,0,0,1-2.48-3.65,12,12,0,0,1,0-9.11,11.53,11.53,0,0,1,6.21-6.14,11.76,11.76,0,0,1,12.76,2.48,11.49,11.49,0,0,1,0,16.42A11.38,11.38,0,0,1,567.11,146.06Zm-9,76.73V155.17h18.08v67.62Z"/><path d="M624.11,153a37.52,37.52,0,0,1,14.42,2.7,33.5,33.5,0,0,1,18.77,18.83,40.37,40.37,0,0,1,0,29,33.48,33.48,0,0,1-18.77,18.84,40,40,0,0,1-28.84,0,33.4,33.4,0,0,1-18.77-18.84,40.37,40.37,0,0,1,0-29,33.42,33.42,0,0,1,18.77-18.83A37.45,37.45,0,0,1,624.11,153Zm0,55.34A17.56,17.56,0,0,0,630.8,207a17.16,17.16,0,0,0,5.73-3.79,18.18,18.18,0,0,0,3.93-6.07,23.6,23.6,0,0,0,0-16.29,18.08,18.08,0,0,0-3.93-6.07,17.18,17.18,0,0,0-5.73-3.8,17.75,17.75,0,0,0-6.69-1.31,17.55,17.55,0,0,0-6.76,1.31,17.2,17.2,0,0,0-5.66,3.8,18,18,0,0,0-3.94,6.07,23.76,23.76,0,0,0,0,16.29,18.05,18.05,0,0,0,3.94,6.07,17.17,17.17,0,0,0,5.66,3.79A17.37,17.37,0,0,0,624.11,208.3Z"/><polygon class="cls-1" points="0 0.01 0 225 112.5 225 46.88 93.75 0 0.01"/><polygon class="cls-1" points="225 0 0 0 0 0 93.75 0 46.88 93.75 178.13 93.75 112.5 225 225 225 225 0"/><polygon class="cls-1" points="112.5 225 112.5 225 112.5 225 112.5 225"/><polygon class="cls-1" points="0 0 0 0.01 0 0 0 0"/></g></g></svg>